<svg xmlns="http://www.w3.org/2000/svg" viewBox="0 0 64 64" width="64" height="64"><title>champagne</title><rect data-element="frame" x="0" y="0" width="64" height="64" rx="64" ry="64" stroke="none" fill="#ebedf9"/><g class="nc-icon-wrapper" transform="translate(12.8 12.8) scale(0.6)" fill="#1e1e1e"><path d="M41.1,42.168a12.621,12.621,0,0,0,3.616-9.189L44,2.977A1,1,0,0,0,43,2H21a1,1,0,0,0-1,.977l-.715,30A12.7,12.7,0,0,0,31,45.951V60H22a1,1,0,0,0,0,2H42a1,1,0,0,0,0-2H33V45.951A12.6,12.6,0,0,0,41.1,42.168ZM21.285,33.026,21.977,4H42.023l.692,29.026a10.718,10.718,0,1,1-21.43,0Z" fill="#0539c6"/> <path data-color="color-2" d="M38.237,39.373a8.654,8.654,0,0,0,2.479-6.3l-.169-7.1a1,1,0,0,0-1-.977H24.453a1,1,0,0,0-1,.977l-.169,7.1a8.718,8.718,0,0,0,14.953,6.3Z"/></g></svg>