<svg xmlns="http://www.w3.org/2000/svg" viewBox="0 0 64 64" width="64" height="64"><title>laptop 1</title><rect data-element="frame" x="0" y="0" width="64" height="64" rx="64" ry="64" stroke="none" fill="#ebedf9"/><g class="nc-icon-wrapper" transform="translate(12.8 12.8) scale(0.6)" fill="#1e1e1e"><path data-color="color-2" d="M8,14a1,1,0,0,1,1-1H55a1,1,0,0,1,1,1V44h2V12a5,5,0,0,0-5-5H11a5,5,0,0,0-5,5V44H8Z"/><path d="M63,46H41v4H23V46H1a1,1,0,0,0-1,1A10.011,10.011,0,0,0,10,57H54A10.011,10.011,0,0,0,64,47,1,1,0,0,0,63,46Z" fill="#0539c6"/></g></svg>