<svg xmlns="http://www.w3.org/2000/svg" viewBox="0 0 64 64" width="64" height="64"><title>laptop 2</title><rect data-element="frame" x="0" y="0" width="64" height="64" rx="64" ry="64" stroke="none" fill="#ebedf9"/><g class="nc-icon-wrapper" transform="translate(12.8 12.8) scale(0.6)" fill="#1e1e1e"><path data-color="color-2" d="M7,14H57V44h2V12a2,2,0,0,0-2-2H7a2,2,0,0,0-2,2V44H7Z"/><path d="M64,46H41v4H23V46H0v4a4,4,0,0,0,4,4H60a4,4,0,0,0,4-4Z" fill="#0539c6"/><circle data-color="color-2" cx="32" cy="19" r="2"/></g></svg>