<svg xmlns="http://www.w3.org/2000/svg" viewBox="0 0 64 64" width="64" height="64"><title>medal</title><rect data-element="frame" x="0" y="0" width="64" height="64" rx="64" ry="64" stroke="none" fill="#ebedf9"/><g class="nc-icon-wrapper" transform="translate(12.8 12.8) scale(0.6)" fill="#1e1e1e"><path data-color="color-2" d="M32,21A21,21,0,1,0,53,42,21.024,21.024,0,0,0,32,21ZM43.7,40.246,38.574,45.24l1.21,7.053a1,1,0,0,1-1.45,1.054L32,50.018l-6.334,3.329a1,1,0,0,1-1.45-1.054l1.21-7.053L20.3,40.246a1,1,0,0,1,.554-1.705l7.08-1.029L31.1,31.1a1.039,1.039,0,0,1,1.792,0l3.168,6.416,7.08,1.029a1,1,0,0,1,.554,1.705Z"/> <path d="M30.116,19.084,22.925,1.619A1,1,0,0,0,22,1H4a1,1,0,0,0-.925,1.381l10.6,25.74A22.989,22.989,0,0,1,30.116,19.084Z" fill="#0539c6"/> <path d="M60.831,1.443A1,1,0,0,0,60,1H42a1,1,0,0,0-.925.619L33.884,19.084a22.989,22.989,0,0,1,16.442,9.037l10.6-25.74A1,1,0,0,0,60.831,1.443Z" fill="#0539c6"/></g></svg>