<svg xmlns="http://www.w3.org/2000/svg" viewBox="0 0 64 64" width="64" height="64"><title>network</title><rect data-element="frame" x="0" y="0" width="64" height="64" rx="64" ry="64" stroke="none" fill="#ebedf9"/><g class="nc-icon-wrapper" transform="translate(12.8 12.8) scale(0.6)" fill="#1e1e1e"><path data-color="color-2" d="M25,20h14c0.552,0,1-0.448,1-1c0-3.86-3.14-7-7-7h-2c-3.86,0-7,3.14-7,7 C24,19.552,24.448,20,25,20z"/> <circle data-color="color-2" cx="32" cy="6" r="4"/> <path data-color="color-2" d="M17,28c0-3.86-3.14-7-7-7H8c-3.86,0-7,3.14-7,7c0,0.552,0.448,1,1,1h14 C16.552,29,17,28.552,17,28z"/> <circle data-color="color-2" cx="9" cy="15" r="4"/> <path data-color="color-2" d="M57,21h-2c-3.86,0-7,3.14-7,7c0,0.552,0.448,1,1,1h14c0.552,0,1-0.448,1-1 C64,24.14,60.86,21,57,21z"/> <circle data-color="color-2" cx="56" cy="15" r="4"/> <path fill="#0539c6" d="M32,46c5.514,0,10-4.486,10-10s-4.486-10-10-10s-10,4.486-10,10S26.486,46,32,46z"/> <path fill="#0539c6" d="M35,49h-6c-7.168,0-13,5.832-13,13c0,0.552,0.448,1,1,1h30c0.552,0,1-0.448,1-1C48,54.832,42.168,49,35,49z"/></g></svg>