<svg xmlns="http://www.w3.org/2000/svg" viewBox="0 0 64 64" width="64" height="64"><title>windsurfing</title><rect data-element="frame" x="0" y="0" width="64" height="64" rx="64" ry="64" stroke="none" fill="#ebedf9"/><g class="nc-icon-wrapper" transform="translate(12.8 12.8) scale(0.6)" fill="#1e1e1e"><path data-color="color-2" d="M62.707,54.292A1,1,0,0,0,62,54h0a15.38,15.38,0,0,1-9.311-3.725,1,1,0,0,0-1.352-.023c-5.779,5.127-13.442,5.143-18.635.035a1,1,0,0,0-1.4,0c-5.193,5.109-12.855,5.093-18.635-.035a1,1,0,0,0-1.352.023A15.382,15.382,0,0,1,2,54H2a1,1,0,0,0-1,1v6a1,1,0,0,0,1,1H62a1,1,0,0,0,1-1V55A1,1,0,0,0,62.707,54.292Z"/> <circle cx="10" cy="18" r="4" fill="#0539c6"/> <path d="M37.78,43.793a1,1,0,0,0,1.28.583l19.952-7.339a1,1,0,0,0,.589-1.294L54.86,23.282C44.2-4.738,23.41,2.544,23.2,2.622a1,1,0,0,0-.59,1.294Z" fill="#0539c6"/> <path d="M10.03,24.12a4,4,0,0,0-2.91,4.85l3,12A4,4,0,0,0,14,44a4.421,4.421,0,0,0,.973-.121c.359-.08,7.83-3.356,7.83-3.356l4.8,5.6a2.5,2.5,0,0,0,3.8-3.254l-6-7A2.5,2.5,0,0,0,22.51,35.2l-5.043,2.174L15.45,29.307l1.961.6a2,2,0,0,0,1.7-.247l6-4a2,2,0,1,0-2.218-3.328l-5.21,3.473S11.946,24.12,11.826,24.1A3.967,3.967,0,0,0,10.03,24.12Z" fill="#0539c6"/></g></svg>